<svg width="24" height="25" viewBox="0 0 24 25" fill="none" xmlns="http://www.w3.org/2000/svg">
<path d="M5 21.5L19 21.5C19.5523 21.5 20 21.0523 20 20.5L20 10.5C20 9.94772 19.5523 9.5 19 9.5L5 9.5C4.44772 9.5 4 9.94772 4 10.5L4 20.5C4 21.0523 4.44772 21.5 5 21.5Z" stroke="white" stroke-width="2" stroke-linecap="round" stroke-linejoin="round"/>
<path d="M9.23077 9.5L14.7692 9.5C14.8967 9.5 15 9.39668 15 9.26923L15 6.5C15 4.84315 13.6569 3.5 12 3.5C10.3431 3.5 9 4.84315 9 6.5L9 9.26923C9 9.39668 9.10332 9.5 9.23077 9.5Z" stroke="white" stroke-width="2" stroke-linecap="round" stroke-linejoin="round"/>
</svg>
